<svg width="80" height="16" viewBox="0 0 80 16" fill="none" xmlns="http://www.w3.org/2000/svg">
<path opacity="0.9" d="M-7.04917e-05 15.2751L5.38761 0.242033H7.72833L13.116 15.2751H10.9973L9.76636 11.7438H3.34957L2.11868 15.2751H-7.04917e-05ZM3.97511 9.92775H9.14083L6.27547 1.67471H6.84047L3.97511 9.92775ZM19.8128 15.5172C18.9384 15.5172 18.138 15.3222 17.4115 14.932C16.6985 14.5419 16.147 13.9904 15.7569 13.2774L16.0192 12.9545V15.2751H14.183V-0.000108968H16.0596V6.73954L15.7771 6.27543C16.1806 5.62972 16.7322 5.11853 17.4317 4.74186C18.1312 4.35174 18.9316 4.15668 19.833 4.15668C20.8553 4.15668 21.7701 4.40555 22.5772 4.90329C23.3978 5.40103 24.0436 6.08037 24.5144 6.94132C24.9852 7.78882 25.2206 8.7574 25.2206 9.84704C25.2206 10.9098 24.9852 11.8716 24.5144 12.7326C24.0436 13.5935 23.3978 14.2729 22.5772 14.7706C21.7701 15.2684 20.8486 15.5172 19.8128 15.5172ZM19.6715 13.7011C20.3576 13.7011 20.9697 13.533 21.5078 13.1967C22.0459 12.8604 22.4629 12.403 22.7588 11.8245C23.0683 11.2326 23.223 10.5735 23.223 9.84704C23.223 9.09371 23.0683 8.43454 22.7588 7.86954C22.4629 7.29109 22.0459 6.8337 21.5078 6.49739C20.9697 6.14763 20.3576 5.97275 19.6715 5.97275C18.9855 5.97275 18.3666 6.14091 17.8151 6.47722C17.277 6.81353 16.8465 7.27763 16.5237 7.86954C16.2143 8.44799 16.0596 9.10716 16.0596 9.84704C16.0596 10.5735 16.2143 11.2326 16.5237 11.8245C16.8465 12.403 17.277 12.8604 17.8151 13.1967C18.3666 13.533 18.9855 13.7011 19.6715 13.7011ZM32.2417 15.5172C31.1924 15.5172 30.244 15.2751 29.3965 14.7908C28.549 14.2931 27.8764 13.6137 27.3786 12.7528C26.8809 11.8918 26.632 10.9165 26.632 9.82686C26.632 8.73722 26.8742 7.76865 27.3585 6.92114C27.8562 6.07364 28.5288 5.40103 29.3763 4.90329C30.2238 4.40555 31.1789 4.15668 32.2417 4.15668C33.291 4.15668 34.2394 4.40555 35.0869 4.90329C35.9344 5.38757 36.6003 6.05347 37.0845 6.90097C37.5823 7.74847 37.8311 8.72376 37.8311 9.82686C37.8311 10.93 37.5756 11.912 37.0644 12.7729C36.5532 13.6204 35.8738 14.2931 35.0263 14.7908C34.1923 15.2751 33.2641 15.5172 32.2417 15.5172ZM32.2417 13.7011C32.9143 13.7011 33.5197 13.533 34.0578 13.1967C34.6093 12.8604 35.0398 12.3963 35.3492 11.8044C35.672 11.2125 35.8335 10.5533 35.8335 9.82686C35.8335 9.08698 35.672 8.43454 35.3492 7.86954C35.0398 7.29109 34.6093 6.8337 34.0578 6.49739C33.5197 6.14763 32.9143 5.97275 32.2417 5.97275C31.5556 5.97275 30.9368 6.14763 30.3852 6.49739C29.8472 6.8337 29.4167 7.29109 29.0938 7.86954C28.771 8.43454 28.6095 9.08698 28.6095 9.82686C28.6095 10.5533 28.771 11.2125 29.0938 11.8044C29.4167 12.3963 29.8472 12.8604 30.3852 13.1967C30.9368 13.533 31.5556 13.7011 32.2417 13.7011ZM43.5275 15.5172C42.7473 15.5172 42.041 15.3356 41.4087 14.9724C40.7899 14.6092 40.3057 14.1047 39.9559 13.459C39.6196 12.7998 39.4514 12.0465 39.4514 11.199V4.39882H41.328V10.9972C41.328 11.5353 41.4357 12.0061 41.6509 12.4097C41.8796 12.8133 42.189 13.1294 42.5791 13.3581C42.9827 13.5868 43.4401 13.7011 43.9512 13.7011C44.4624 13.7011 44.9131 13.5868 45.3032 13.3581C45.7068 13.1294 46.0162 12.7998 46.2314 12.3694C46.4601 11.9389 46.5745 11.4277 46.5745 10.8358V4.39882H48.4713V15.2751H46.635V13.1563L46.9377 13.3379C46.6821 14.024 46.2449 14.5621 45.6261 14.9522C45.0207 15.3289 44.3212 15.5172 43.5275 15.5172ZM55.1923 15.3962C54.1296 15.3962 53.309 15.0935 52.7305 14.4881C52.1655 13.8828 51.883 13.0285 51.883 11.9254V6.19472H49.9055V4.39882H50.3091C50.7934 4.39882 51.1768 4.25085 51.4593 3.95489C51.7418 3.65894 51.883 3.26882 51.883 2.78454V1.89668H53.7596V4.39882H56.2012V6.19472H53.7596V11.8649C53.7596 12.2281 53.8134 12.5442 53.921 12.8133C54.0421 13.0823 54.2372 13.2976 54.5062 13.459C54.7753 13.607 55.1318 13.681 55.5757 13.681C55.6699 13.681 55.7842 13.6742 55.9187 13.6608C56.0667 13.6473 56.2012 13.6339 56.3223 13.6204V15.2751C56.1474 15.3154 55.9524 15.3423 55.7371 15.3558C55.5219 15.3827 55.3403 15.3962 55.1923 15.3962ZM64.905 15.5172C64.1247 15.5172 63.4185 15.3356 62.7862 14.9724C62.1674 14.6092 61.6831 14.1047 61.3334 13.459C60.9971 12.7998 60.8289 12.0465 60.8289 11.199V4.39882H62.7055V10.9972C62.7055 11.5353 62.8131 12.0061 63.0284 12.4097C63.2571 12.8133 63.5665 13.1294 63.9566 13.3581C64.3602 13.5868 64.8175 13.7011 65.3287 13.7011C65.8399 13.7011 66.2906 13.5868 66.6807 13.3581C67.0843 13.1294 67.3937 12.7998 67.6089 12.3694C67.8376 11.9389 67.9519 11.4277 67.9519 10.8358V4.39882H69.8487V15.2751H68.0125V13.1563L68.3152 13.3379C68.0596 14.024 67.6224 14.5621 67.0035 14.9522C66.3982 15.3289 65.6987 15.5172 64.905 15.5172ZM76.0451 15.5172C74.9555 15.5172 74.0071 15.2482 73.1999 14.7101C72.3928 14.172 71.8211 13.4456 71.4848 12.5308L72.978 11.8044C73.2874 12.4501 73.7111 12.9613 74.2492 13.3379C74.7873 13.7146 75.386 13.9029 76.0451 13.9029C76.637 13.9029 77.128 13.7617 77.5182 13.4792C77.9083 13.1967 78.1033 12.8267 78.1033 12.3694C78.1033 12.0465 78.0092 11.7909 77.8208 11.6026C77.646 11.4008 77.4307 11.2461 77.1751 11.1385C76.9195 11.0174 76.6841 10.93 76.4689 10.8761L74.8344 10.412C73.8524 10.1295 73.1327 9.72597 72.6753 9.20132C72.2314 8.67668 72.0094 8.0646 72.0094 7.36507C72.0094 6.71936 72.1708 6.16108 72.4937 5.69025C72.83 5.20597 73.2807 4.8293 73.8457 4.56025C74.4241 4.2912 75.0698 4.15668 75.7828 4.15668C76.7379 4.15668 77.5922 4.39882 78.3455 4.88311C79.1123 5.36739 79.6571 6.04674 79.98 6.92114L78.4464 7.6274C78.2042 7.06239 77.841 6.61847 77.3567 6.29561C76.8724 5.9593 76.3276 5.79114 75.7223 5.79114C75.1707 5.79114 74.7335 5.93239 74.4107 6.21489C74.0878 6.48394 73.9264 6.82698 73.9264 7.244C73.9264 7.55341 74.0071 7.809 74.1685 8.01079C74.3299 8.19912 74.525 8.3471 74.7537 8.45472C74.9824 8.54888 75.2044 8.6296 75.4196 8.69686L77.1953 9.2215C78.0832 9.4771 78.7692 9.87394 79.2535 10.412C79.7513 10.9501 80.0001 11.5959 80.0001 12.3492C80.0001 12.9545 79.832 13.4994 79.4957 13.9836C79.1594 14.4679 78.6952 14.8446 78.1033 15.1136C77.5114 15.3827 76.8254 15.5172 76.0451 15.5172Z" fill="#7354AC"/>
</svg>
