<svg width="55" height="16" viewBox="0 0 55 16" fill="none" xmlns="http://www.w3.org/2000/svg">
<path d="M-3.95161e-05 15.1274V-0.000100454H2.39599V6.66006H9.40135V-0.000100454H11.7771V15.1274H9.40135V8.79213H2.39599V15.1274H-3.95161e-05ZM19.3789 15.3711C18.323 15.3711 17.3551 15.1206 16.4752 14.6198C15.6089 14.1189 14.9185 13.4353 14.4041 12.5689C13.8897 11.7026 13.6325 10.7211 13.6325 9.62465C13.6325 8.51462 13.8897 7.53319 14.4041 6.68037C14.9185 5.81401 15.6089 5.13716 16.4752 4.64983C17.3416 4.14896 18.3095 3.89853 19.3789 3.89853C20.4619 3.89853 21.4297 4.14896 22.2826 4.64983C23.1489 5.13716 23.8325 5.81401 24.3334 6.68037C24.8478 7.53319 25.105 8.51462 25.105 9.62465C25.105 10.7347 24.8478 11.7229 24.3334 12.5892C23.819 13.4556 23.1286 14.1392 22.2623 14.6401C21.3959 15.1274 20.4348 15.3711 19.3789 15.3711ZM19.3789 13.239C20.0287 13.239 20.604 13.0833 21.1049 12.772C21.6057 12.4606 21.9983 12.0342 22.2826 11.4927C22.5804 10.9377 22.7293 10.315 22.7293 9.62465C22.7293 8.93426 22.5804 8.31834 22.2826 7.77686C21.9983 7.23538 21.6057 6.80897 21.1049 6.49762C20.604 6.18627 20.0287 6.0306 19.3789 6.0306C18.7427 6.0306 18.1673 6.18627 17.6529 6.49762C17.1521 6.80897 16.7527 7.23538 16.4549 7.77686C16.1707 8.31834 16.0285 8.93426 16.0285 9.62465C16.0285 10.315 16.1707 10.9377 16.4549 11.4927C16.7527 12.0342 17.1521 12.4606 17.6529 12.772C18.1673 13.0833 18.7427 13.239 19.3789 13.239ZM26.736 15.1274V4.1422H28.9289V6.51793L28.6447 6.15243C28.8748 5.4079 29.2944 4.84612 29.9036 4.46708C30.5127 4.08805 31.2099 3.89853 31.995 3.89853C32.8749 3.89853 33.6533 4.13543 34.3302 4.60922C35.0205 5.06948 35.4808 5.68541 35.7109 6.45701L35.0612 6.51793C35.386 5.63803 35.8801 4.98149 36.5434 4.5483C37.2203 4.11512 37.9919 3.89853 38.8583 3.89853C39.6163 3.89853 40.2999 4.07451 40.9091 4.42647C41.5318 4.77843 42.0259 5.26576 42.3914 5.88846C42.7569 6.51116 42.9396 7.22185 42.9396 8.02052V15.1274H40.6451V8.64999C40.6451 8.09498 40.5436 7.62795 40.3406 7.24892C40.151 6.85635 39.8803 6.55854 39.5283 6.35548C39.1899 6.13889 38.7906 6.0306 38.3303 6.0306C37.8701 6.0306 37.464 6.13889 37.112 6.35548C36.76 6.55854 36.4825 6.85635 36.2795 7.24892C36.0764 7.64149 35.9749 8.10851 35.9749 8.64999V15.1274H33.7007V8.64999C33.7007 8.09498 33.5992 7.62795 33.3961 7.24892C33.2066 6.85635 32.9359 6.55854 32.5839 6.35548C32.2455 6.13889 31.8394 6.0306 31.3656 6.0306C30.9053 6.0306 30.4992 6.13889 30.1473 6.35548C29.7953 6.55854 29.5178 6.85635 29.3147 7.24892C29.1252 7.64149 29.0305 8.10851 29.0305 8.64999V15.1274H26.736ZM49.9439 15.3711C48.8474 15.3711 47.8727 15.1206 47.0199 14.6198C46.1806 14.1054 45.5241 13.415 45.0503 12.5486C44.5765 11.6687 44.3396 10.6873 44.3396 9.60434C44.3396 8.49432 44.5765 7.51289 45.0503 6.66006C45.5376 5.80724 46.1874 5.13716 46.9996 4.64983C47.8118 4.14896 48.7323 3.89853 49.7611 3.89853C50.5869 3.89853 51.3246 4.04067 51.9744 4.32495C52.6242 4.60922 53.1724 5.00179 53.6192 5.50266C54.0659 5.98999 54.4043 6.55177 54.6344 7.188C54.8781 7.82424 54.9999 8.50108 54.9999 9.21854C54.9999 9.39452 54.9932 9.57727 54.9796 9.76679C54.9661 9.9563 54.939 10.1323 54.8984 10.2947H46.1468V8.46724H53.5989L52.5024 9.29976C52.6377 8.63645 52.5904 8.0476 52.3602 7.53319C52.1436 7.00525 51.8052 6.59238 51.345 6.29457C50.8982 5.98322 50.3703 5.82754 49.7611 5.82754C49.152 5.82754 48.6105 5.98322 48.1367 6.29457C47.6629 6.59238 47.2974 7.02556 47.0402 7.59411C46.783 8.14912 46.6815 8.82597 46.7356 9.62465C46.6679 10.3692 46.7695 11.019 47.0402 11.574C47.3245 12.129 47.7171 12.5622 48.2179 12.8735C48.7323 13.1849 49.3144 13.3405 49.9642 13.3405C50.6275 13.3405 51.1893 13.1916 51.6495 12.8938C52.1233 12.596 52.4956 12.2102 52.7663 11.7364L54.6344 12.6501C54.4178 13.1646 54.0794 13.6316 53.6192 14.0512C53.1724 14.4573 52.631 14.7822 51.9947 15.0259C51.372 15.256 50.6884 15.3711 49.9439 15.3711Z" fill="#27006D"/>
</svg>
