<svg width="103" height="16" viewBox="0 0 103 16" fill="none" xmlns="http://www.w3.org/2000/svg">
<path opacity="0.9" d="M-0.000157008 15.2217V0.241188H1.97044V15.2217H-0.000157008ZM4.47735 15.2217V4.38346H6.30719V6.49481L6.00557 6.31383C6.27367 5.63016 6.70265 5.10065 7.29248 4.72529C7.89573 4.33654 8.59951 4.14216 9.40383 4.14216C10.1813 4.14216 10.8717 4.31643 11.475 4.66497C12.0916 5.01351 12.5742 5.49611 12.9228 6.11275C13.2847 6.7294 13.4657 7.42648 13.4657 8.204V15.2217H11.5755V8.80724C11.5755 8.204 11.4683 7.69459 11.2538 7.27902C11.0393 6.86346 10.731 6.54173 10.3288 6.31383C9.94005 6.07254 9.49097 5.95189 8.98156 5.95189C8.47216 5.95189 8.01638 6.07254 7.61421 6.31383C7.22546 6.54173 6.91713 6.87016 6.68924 7.29913C6.46135 7.7147 6.3474 8.2174 6.3474 8.80724V15.2217H4.47735ZM16.6845 15.2217V6.17308H14.6134V4.38346H16.6845V3.61935C16.6845 2.84184 16.8521 2.18497 17.1872 1.64876C17.5358 1.11254 17.9916 0.703675 18.5546 0.422161C19.131 0.140648 19.7678 -0.000108587 20.4649 -0.000108587C20.6123 -0.000108587 20.7732 0.0132966 20.9475 0.0401071C21.1351 0.0535131 21.2893 0.0736214 21.4099 0.100432V1.7694C21.3027 1.74259 21.1753 1.72919 21.0279 1.72919C20.8804 1.71578 20.7665 1.70908 20.686 1.70908C20.0694 1.70908 19.56 1.85654 19.1578 2.15146C18.7691 2.44638 18.5747 2.93567 18.5747 3.61935V4.38346H21.1485V6.17308H18.5747V15.2217H16.6845ZM27.5644 15.463C26.5188 15.463 25.5737 15.2217 24.7292 14.7391C23.8847 14.2431 23.2144 13.5662 22.7184 12.7082C22.2224 11.8503 21.9744 10.8784 21.9744 9.79254C21.9744 8.7067 22.2157 7.74151 22.6983 6.89697C23.1943 6.05243 23.8645 5.38216 24.7091 4.88616C25.5536 4.39016 26.5054 4.14216 27.5644 4.14216C28.6101 4.14216 29.5551 4.39016 30.3997 4.88616C31.2442 5.36875 31.9078 6.03232 32.3904 6.87686C32.8864 7.7214 33.1344 8.69329 33.1344 9.79254C33.1344 10.8918 32.8797 11.8704 32.3703 12.7283C31.8609 13.5729 31.1839 14.2431 30.3394 14.7391C29.5082 15.2217 28.5832 15.463 27.5644 15.463ZM27.5644 13.6533C28.2347 13.6533 28.8379 13.4857 29.3742 13.1506C29.9238 12.8155 30.3528 12.353 30.6611 11.7631C30.9828 11.1733 31.1437 10.5164 31.1437 9.79254C31.1437 9.05524 30.9828 8.40508 30.6611 7.84205C30.3528 7.26562 29.9238 6.80983 29.3742 6.4747C28.8379 6.12616 28.2347 5.95189 27.5644 5.95189C26.8808 5.95189 26.2641 6.12616 25.7145 6.4747C25.1783 6.80983 24.7493 7.26562 24.4276 7.84205C24.1058 8.40508 23.945 9.05524 23.945 9.79254C23.945 10.5164 24.1058 11.1733 24.4276 11.7631C24.7493 12.353 25.1783 12.8155 25.7145 13.1506C26.2641 13.4857 26.8808 13.6533 27.5644 13.6533ZM34.9702 15.2217V4.38346H36.8V6.37416L36.5989 6.09265C36.8536 5.476 37.2424 5.02021 37.7652 4.72529C38.288 4.41697 38.9248 4.26281 39.6755 4.26281H40.339V6.03232H39.394C38.6299 6.03232 38.0132 6.27362 37.544 6.75621C37.0748 7.2254 36.8402 7.89567 36.8402 8.76702V15.2217H34.9702ZM41.3969 15.2217V4.38346H43.2268V6.59535L42.9653 6.25351C43.2335 5.56983 43.6624 5.04702 44.2523 4.68508C44.8421 4.32313 45.5057 4.14216 46.243 4.14216C47.0875 4.14216 47.8449 4.37675 48.5152 4.84594C49.1989 5.31513 49.668 5.93178 49.9228 6.69589L49.3999 6.716C49.6815 5.87146 50.1573 5.2347 50.8276 4.80573C51.4979 4.36335 52.2419 4.14216 53.0596 4.14216C53.8103 4.14216 54.4873 4.31643 55.0905 4.66497C55.7072 5.01351 56.1965 5.49611 56.5584 6.11275C56.9204 6.7294 57.1013 7.42648 57.1013 8.204V15.2217H55.2112V8.80724C55.2112 8.204 55.1039 7.69459 54.8895 7.27902C54.675 6.86346 54.38 6.54173 54.0047 6.31383C53.6428 6.07254 53.2138 5.95189 52.7178 5.95189C52.2352 5.95189 51.7995 6.07254 51.4108 6.31383C51.0354 6.54173 50.7338 6.87016 50.5059 7.29913C50.2914 7.7147 50.1842 8.2174 50.1842 8.80724V15.2217H48.294V8.80724C48.294 8.204 48.1868 7.69459 47.9723 7.27902C47.7578 6.86346 47.4629 6.54173 47.0875 6.31383C46.7256 6.07254 46.2966 5.95189 45.8006 5.95189C45.318 5.95189 44.8823 6.07254 44.4936 6.31383C44.1182 6.54173 43.8166 6.87016 43.5887 7.29913C43.3742 7.7147 43.267 8.2174 43.267 8.80724V15.2217H41.3969ZM62.3312 15.463C61.6207 15.463 60.9906 15.3357 60.441 15.081C59.9048 14.8129 59.4825 14.4509 59.1742 13.9951C58.8659 13.5259 58.7117 12.9897 58.7117 12.3865C58.7117 11.81 58.8324 11.2939 59.0737 10.8382C59.3284 10.369 59.7171 9.97351 60.2399 9.65178C60.7762 9.33005 61.4464 9.10216 62.2507 8.9681L66.2724 8.30454V9.87297L62.673 10.4762C61.9759 10.5969 61.4665 10.818 61.1448 11.1398C60.8365 11.4615 60.6823 11.857 60.6823 12.3262C60.6823 12.7685 60.8566 13.1372 61.2051 13.4321C61.5671 13.727 62.0162 13.8745 62.5524 13.8745C63.236 13.8745 63.8259 13.7337 64.3219 13.4522C64.8313 13.1573 65.2267 12.7618 65.5083 12.2658C65.8032 11.7698 65.9506 11.2202 65.9506 10.617V7.86216C65.9506 7.27232 65.7294 6.79643 65.2871 6.43448C64.8581 6.05913 64.2884 5.87146 63.5779 5.87146C62.9612 5.87146 62.4116 6.03232 61.929 6.35405C61.4598 6.66237 61.1113 7.07794 60.8834 7.60075L59.2546 6.75621C59.4557 6.26021 59.7774 5.81783 60.2198 5.42908C60.6622 5.02692 61.1783 4.71189 61.7682 4.484C62.358 4.25611 62.9746 4.14216 63.6181 4.14216C64.4492 4.14216 65.1798 4.30302 65.8099 4.62475C66.4399 4.93308 66.9292 5.36875 67.2778 5.93178C67.6397 6.4814 67.8207 7.12486 67.8207 7.86216V15.2217H65.9909V13.1707L66.3327 13.2913C66.1048 13.7203 65.7965 14.0957 65.4077 14.4174C65.019 14.7391 64.5632 14.9938 64.0404 15.1815C63.5176 15.3692 62.9478 15.463 62.3312 15.463ZM74.3242 15.3424C73.2652 15.3424 72.4475 15.0407 71.8711 14.4375C71.308 13.8343 71.0265 12.983 71.0265 11.8838V6.17308H69.0559V4.38346H69.4581C69.9407 4.38346 70.3227 4.236 70.6042 3.94108C70.8858 3.64616 71.0265 3.2574 71.0265 2.77481V1.89005H72.8966V4.38346H75.3297V6.17308H72.8966V11.8235C72.8966 12.1854 72.9502 12.5004 73.0574 12.7685C73.1781 13.0366 73.3725 13.2511 73.6406 13.412C73.9087 13.5595 74.2639 13.6332 74.7063 13.6332C74.8001 13.6332 74.9141 13.6265 75.0481 13.6131C75.1956 13.5997 75.3297 13.5863 75.4503 13.5729V15.2217C75.276 15.2619 75.0817 15.2887 74.8672 15.3022C74.6527 15.329 74.4717 15.3424 74.3242 15.3424ZM77.2899 15.2217V4.38346H79.1599V15.2217H77.2899ZM77.2899 2.65416V0.241188H79.1599V2.65416H77.2899ZM86.606 15.463C85.5604 15.463 84.6153 15.2217 83.7708 14.7391C82.9263 14.2431 82.256 13.5662 81.76 12.7082C81.264 11.8503 81.016 10.8784 81.016 9.79254C81.016 8.7067 81.2573 7.74151 81.7399 6.89697C82.2359 6.05243 82.9062 5.38216 83.7507 4.88616C84.5952 4.39016 85.547 4.14216 86.606 4.14216C87.6517 4.14216 88.5967 4.39016 89.4413 4.88616C90.2858 5.36875 90.9494 6.03232 91.432 6.87686C91.928 7.7214 92.176 8.69329 92.176 9.79254C92.176 10.8918 91.9213 11.8704 91.4119 12.7283C90.9025 13.5729 90.2255 14.2431 89.381 14.7391C88.5498 15.2217 87.6249 15.463 86.606 15.463ZM86.606 13.6533C87.2763 13.6533 87.8796 13.4857 88.4158 13.1506C88.9654 12.8155 89.3944 12.353 89.7027 11.7631C90.0244 11.1733 90.1853 10.5164 90.1853 9.79254C90.1853 9.05524 90.0244 8.40508 89.7027 7.84205C89.3944 7.26562 88.9654 6.80983 88.4158 6.4747C87.8796 6.12616 87.2763 5.95189 86.606 5.95189C85.9224 5.95189 85.3057 6.12616 84.7561 6.4747C84.2199 6.80983 83.7909 7.26562 83.4692 7.84205C83.1475 8.40508 82.9866 9.05524 82.9866 9.79254C82.9866 10.5164 83.1475 11.1733 83.4692 11.7631C83.7909 12.353 84.2199 12.8155 84.7561 13.1506C85.3057 13.4857 85.9224 13.6533 86.606 13.6533ZM94.0118 15.2217V4.38346H95.8416V6.49481L95.54 6.31383C95.8081 5.63016 96.2371 5.10065 96.8269 4.72529C97.4302 4.33654 98.134 4.14216 98.9383 4.14216C99.7158 4.14216 100.406 4.31643 101.009 4.66497C101.626 5.01351 102.109 5.49611 102.457 6.11275C102.819 6.7294 103 7.42648 103 8.204V15.2217H101.11V8.80724C101.11 8.204 101.003 7.69459 100.788 7.27902C100.574 6.86346 100.265 6.54173 99.8633 6.31383C99.4745 6.07254 99.0254 5.95189 98.516 5.95189C98.0066 5.95189 97.5508 6.07254 97.1487 6.31383C96.7599 6.54173 96.4516 6.87016 96.2237 7.29913C95.9958 7.7147 95.8819 8.2174 95.8819 8.80724V15.2217H94.0118Z" fill="#7354AC"/>
</svg>
