<svg width="104" height="49" viewBox="0 0 104 49" fill="none" xmlns="http://www.w3.org/2000/svg">
<rect width="104" height="48.1951" rx="4" fill="#27006D"/>
<path d="M25.66 30V15.1H27.62V28.2H34.16V30H25.66ZM40.6631 30.24C39.6231 30.24 38.6831 30 37.8431 29.52C37.0031 29.0267 36.3365 28.3533 35.8431 27.5C35.3498 26.6467 35.1031 25.68 35.1031 24.6C35.1031 23.52 35.3431 22.56 35.8231 21.72C36.3165 20.88 36.9831 20.2133 37.8231 19.72C38.6631 19.2267 39.6098 18.98 40.6631 18.98C41.7031 18.98 42.6431 19.2267 43.4831 19.72C44.3231 20.2 44.9831 20.86 45.4631 21.7C45.9565 22.54 46.2031 23.5067 46.2031 24.6C46.2031 25.6933 45.9498 26.6667 45.4431 27.52C44.9365 28.36 44.2631 29.0267 43.4231 29.52C42.5965 30 41.6765 30.24 40.6631 30.24ZM40.6631 28.44C41.3298 28.44 41.9298 28.2733 42.4631 27.94C43.0098 27.6067 43.4365 27.1467 43.7431 26.56C44.0631 25.9733 44.2231 25.32 44.2231 24.6C44.2231 23.8667 44.0631 23.22 43.7431 22.66C43.4365 22.0867 43.0098 21.6333 42.4631 21.3C41.9298 20.9533 41.3298 20.78 40.6631 20.78C39.9831 20.78 39.3698 20.9533 38.8231 21.3C38.2898 21.6333 37.8631 22.0867 37.5431 22.66C37.2231 23.22 37.0631 23.8667 37.0631 24.6C37.0631 25.32 37.2231 25.9733 37.5431 26.56C37.8631 27.1467 38.2898 27.6067 38.8231 27.94C39.3698 28.2733 39.9831 28.44 40.6631 28.44ZM53.1691 34.4C52.4091 34.4 51.7024 34.28 51.0491 34.04C50.4091 33.8 49.8557 33.4667 49.3891 33.04C48.9357 32.6267 48.5891 32.14 48.3491 31.58L50.0891 30.78C50.2757 31.2867 50.6291 31.7133 51.1491 32.06C51.6824 32.42 52.3491 32.6 53.1491 32.6C53.7624 32.6 54.3157 32.48 54.8091 32.24C55.3157 32.0133 55.7157 31.6667 56.0091 31.2C56.3024 30.7467 56.4491 30.1933 56.4491 29.54V27.12L56.7891 27.48C56.4157 28.2133 55.8757 28.7733 55.1691 29.16C54.4757 29.5467 53.7091 29.74 52.8691 29.74C51.8557 29.74 50.9491 29.5067 50.1491 29.04C49.3491 28.56 48.7224 27.9133 48.2691 27.1C47.8157 26.2733 47.5891 25.36 47.5891 24.36C47.5891 23.3467 47.8157 22.4333 48.2691 21.62C48.7224 20.8067 49.3424 20.1667 50.1291 19.7C50.9291 19.22 51.8357 18.98 52.8491 18.98C53.6891 18.98 54.4491 19.1733 55.1291 19.56C55.8224 19.9333 56.3757 20.4533 56.7891 21.12L56.5091 21.62V19.22H58.3291V29.54C58.3291 30.4733 58.1091 31.3067 57.6691 32.04C57.2291 32.7733 56.6157 33.3467 55.8291 33.76C55.0557 34.1867 54.1691 34.4 53.1691 34.4ZM53.0291 27.94C53.6691 27.94 54.2424 27.78 54.7491 27.46C55.2691 27.14 55.6824 26.7133 55.9891 26.18C56.2957 25.6333 56.4491 25.0267 56.4491 24.36C56.4491 23.7067 56.2957 23.1067 55.9891 22.56C55.6824 22.0133 55.2691 21.58 54.7491 21.26C54.2424 20.94 53.6691 20.78 53.0291 20.78C52.3757 20.78 51.7824 20.94 51.2491 21.26C50.7157 21.58 50.2957 22.0133 49.9891 22.56C49.6957 23.0933 49.5491 23.6933 49.5491 24.36C49.5491 25.0267 49.6957 25.6333 49.9891 26.18C50.2957 26.7133 50.7091 27.14 51.2291 27.46C51.7624 27.78 52.3624 27.94 53.0291 27.94ZM63.6897 30V15.1H65.6497V30H63.6897ZM68.1431 30V19.22H69.9631V21.32L69.6631 21.14C69.9298 20.46 70.3565 19.9333 70.9431 19.56C71.5431 19.1733 72.2431 18.98 73.0431 18.98C73.8165 18.98 74.5031 19.1533 75.1031 19.5C75.7165 19.8467 76.1965 20.3267 76.5431 20.94C76.9031 21.5533 77.0831 22.2467 77.0831 23.02V30H75.2031V23.62C75.2031 23.02 75.0965 22.5133 74.8831 22.1C74.6698 21.6867 74.3631 21.3667 73.9631 21.14C73.5765 20.9 73.1298 20.78 72.6231 20.78C72.1165 20.78 71.6631 20.9 71.2631 21.14C70.8765 21.3667 70.5698 21.6933 70.3431 22.12C70.1165 22.5333 70.0031 23.0333 70.0031 23.62V30H68.1431Z" fill="white"/>
</svg>
