<svg width="213" height="99" viewBox="0 0 213 99" fill="none" xmlns="http://www.w3.org/2000/svg">
<g filter="url(#filter0_d_49_159)">
<path d="M35.306 58.6544V31.7232H39.6078L54.0675 50.7739L51.754 51.3161V31.7232H57.3571V58.6544H53.0192L38.8125 39.4591L40.9092 38.9169V58.6544H35.306ZM70.1608 59.0882C68.0641 59.0882 66.2446 58.6303 64.7022 57.7145C63.1598 56.7746 61.9669 55.5215 61.1234 53.955C60.2799 52.3885 59.8582 50.6534 59.8582 48.7495C59.8582 46.7733 60.292 45.0141 61.1596 43.4717C62.0513 41.9293 63.2442 40.7123 64.7384 39.8206C66.2325 38.9289 67.9195 38.4831 69.7993 38.4831C71.3657 38.4831 72.7515 38.7361 73.9564 39.2422C75.1614 39.7242 76.1736 40.411 76.993 41.3027C77.8365 42.1944 78.4751 43.2307 78.9089 44.4116C79.3427 45.5683 79.5596 46.8336 79.5596 48.2072C79.5596 48.5928 79.5355 48.9784 79.4873 49.364C79.4632 49.7255 79.4029 50.0388 79.3065 50.3039H64.5215V46.3275H76.2338L73.6672 48.2072C73.9082 47.171 73.8962 46.2552 73.6311 45.4599C73.366 44.6405 72.8961 44.0019 72.2213 43.544C71.5706 43.062 70.7632 42.821 69.7993 42.821C68.8594 42.821 68.052 43.0499 67.3773 43.5078C66.7025 43.9657 66.1964 44.6405 65.859 45.5322C65.5216 46.4239 65.389 47.5084 65.4613 48.7856C65.3649 49.8942 65.4975 50.8702 65.859 51.7137C66.2205 52.5572 66.7748 53.22 67.5219 53.7019C68.2689 54.1598 69.1727 54.3888 70.2331 54.3888C71.197 54.3888 72.0164 54.196 72.6912 53.8104C73.3901 53.4248 73.9323 52.8946 74.3179 52.2198L78.6559 54.2803C78.2703 55.2443 77.6557 56.0878 76.8122 56.8108C75.9929 57.5338 75.0168 58.1001 73.8841 58.5098C72.7515 58.8954 71.5103 59.0882 70.1608 59.0882ZM79.7607 58.6544L86.6652 48.7495L79.7245 38.9169H86.0145L91.22 46.5805H88.4727L93.6782 38.9169H99.9681L93.0275 48.7495L99.8958 58.6544H93.642L88.545 50.9907H91.1477L86.0506 58.6544H79.7607ZM106.512 58.6544V36.6033H99.6801V31.7232H118.839V36.6033H112.115V58.6544H106.512ZM127.097 59.0882C125.001 59.0882 123.181 58.6303 121.639 57.7145C120.096 56.7746 118.904 55.5215 118.06 53.955C117.217 52.3885 116.795 50.6534 116.795 48.7495C116.795 46.7733 117.229 45.0141 118.096 43.4717C118.988 41.9293 120.181 40.7123 121.675 39.8206C123.169 38.9289 124.856 38.4831 126.736 38.4831C128.302 38.4831 129.688 38.7361 130.893 39.2422C132.098 39.7242 133.11 40.411 133.93 41.3027C134.773 42.1944 135.412 43.2307 135.846 44.4116C136.279 45.5683 136.496 46.8336 136.496 48.2072C136.496 48.5928 136.472 48.9784 136.424 49.364C136.4 49.7255 136.34 50.0388 136.243 50.3039H121.458V46.3275H133.17L130.604 48.2072C130.845 47.171 130.833 46.2552 130.568 45.4599C130.303 44.6405 129.833 44.0019 129.158 43.544C128.507 43.062 127.7 42.821 126.736 42.821C125.796 42.821 124.989 43.0499 124.314 43.5078C123.639 43.9657 123.133 44.6405 122.796 45.5322C122.458 46.4239 122.326 47.5084 122.398 48.7856C122.302 49.8942 122.434 50.8702 122.796 51.7137C123.157 52.5572 123.711 53.22 124.458 53.7019C125.206 54.1598 126.109 54.3888 127.17 54.3888C128.134 54.3888 128.953 54.196 129.628 53.8104C130.327 53.4248 130.869 52.8946 131.255 52.2198L135.592 54.2803C135.207 55.2443 134.592 56.0878 133.749 56.8108C132.929 57.5338 131.953 58.1001 130.821 58.5098C129.688 58.8954 128.447 59.0882 127.097 59.0882ZM148.293 59.0882C146.317 59.0882 144.533 58.6424 142.943 57.7507C141.376 56.8349 140.123 55.5938 139.183 54.0273C138.267 52.4608 137.809 50.7016 137.809 48.7495C137.809 46.7974 138.267 45.0502 139.183 43.5078C140.099 41.9414 141.352 40.7123 142.943 39.8206C144.533 38.9289 146.317 38.4831 148.293 38.4831C149.763 38.4831 151.124 38.7361 152.378 39.2422C153.631 39.7483 154.703 40.4592 155.595 41.375C156.487 42.2667 157.125 43.3271 157.511 44.5562L152.811 46.5805C152.474 45.5924 151.896 44.8092 151.076 44.2308C150.281 43.6524 149.353 43.3632 148.293 43.3632C147.353 43.3632 146.509 43.5922 145.762 44.0501C145.039 44.508 144.461 45.1466 144.027 45.966C143.617 46.7854 143.413 47.7253 143.413 48.7856C143.413 49.846 143.617 50.7859 144.027 51.6053C144.461 52.4247 145.039 53.0633 145.762 53.5212C146.509 53.9791 147.353 54.208 148.293 54.208C149.377 54.208 150.317 53.9188 151.112 53.3405C151.908 52.7621 152.474 51.9788 152.811 50.9907L157.511 53.0513C157.149 54.208 156.523 55.2443 155.631 56.1601C154.739 57.0759 153.667 57.7989 152.414 58.3291C151.161 58.8352 149.787 59.0882 148.293 59.0882ZM159.619 58.6544V31.2894H165.042V42.821L164.391 41.9534C164.849 40.7725 165.584 39.905 166.596 39.3507C167.632 38.7723 168.837 38.4831 170.211 38.4831C171.705 38.4831 173.007 38.7964 174.115 39.423C175.248 40.0495 176.128 40.9292 176.754 42.0619C177.381 43.1704 177.694 44.4718 177.694 45.966V58.6544H172.272V47.1228C172.272 46.3516 172.115 45.6888 171.802 45.1346C171.512 44.5803 171.091 44.1465 170.536 43.8332C170.006 43.5199 169.38 43.3632 168.657 43.3632C167.958 43.3632 167.331 43.5199 166.777 43.8332C166.223 44.1465 165.789 44.5803 165.476 45.1346C165.186 45.6888 165.042 46.3516 165.042 47.1228V58.6544H159.619Z" fill="url(#paint0_linear_49_159)" shape-rendering="crispEdges"/>
</g>
<defs>
<filter id="filter0_d_49_159" x="0.000157051" y="0.000157051" width="213" height="98.4104" filterUnits="userSpaceOnUse" color-interpolation-filters="sRGB">
<feFlood flood-opacity="0" result="BackgroundImageFix"/>
<feColorMatrix in="SourceAlpha" type="matrix" values="0 0 0 0 0 0 0 0 0 0 0 0 0 0 0 0 0 0 127 0" result="hardAlpha"/>
<feOffset dy="4"/>
<feGaussianBlur stdDeviation="17.58"/>
<feComposite in2="hardAlpha" operator="out"/>
<feColorMatrix type="matrix" values="0 0 0 0 0 0 0 0 0 0 0 0 0 0 0 0 0 0 0.08 0"/>
<feBlend mode="normal" in2="BackgroundImageFix" result="effect1_dropShadow_49_159"/>
<feBlend mode="normal" in="SourceGraphic" in2="effect1_dropShadow_49_159" result="shape"/>
</filter>
<linearGradient id="paint0_linear_49_159" x1="-25.8225" y1="44.5963" x2="287.974" y2="44.5963" gradientUnits="userSpaceOnUse">
<stop stop-color="#7FC6FF" stop-opacity="0.74"/>
<stop offset="1" stop-color="#FF43E6" stop-opacity="0.71"/>
</linearGradient>
</defs>
</svg>
