<svg width="76" height="20" viewBox="0 0 76 20" fill="none" xmlns="http://www.w3.org/2000/svg">
<g opacity="0.75">
<path d="M1.67067 14.9957V-9.95796e-05H6.96448C7.95749 -9.95796e-05 8.82972 0.187767 9.58119 0.563501C10.3327 0.939234 10.9164 1.47599 11.3324 2.17378C11.7618 2.87157 11.9765 3.69013 11.9765 4.62947C11.9765 5.68957 11.7081 6.58865 11.1713 7.32669C10.6346 8.06474 9.90995 8.59479 8.99746 8.91685L12.4797 14.9957H10.185L6.52165 8.49415L7.83 9.25903H3.64327V14.9957H1.67067ZM3.64327 7.44746H7.02486C7.6153 7.44746 8.13193 7.3334 8.57476 7.10528C9.01759 6.87715 9.35977 6.54839 9.60132 6.11898C9.85628 5.68957 9.98376 5.19307 9.98376 4.62947C9.98376 4.05245 9.85628 3.55594 9.60132 3.13995C9.35977 2.71054 9.01759 2.38178 8.57476 2.15366C8.13193 1.92553 7.6153 1.81147 7.02486 1.81147H3.64327V7.44746ZM18.28 15.2372C17.2333 15.2372 16.3007 14.989 15.4822 14.4925C14.6636 13.9959 14.0195 13.3183 13.5498 12.4595C13.0801 11.5872 12.8453 10.6144 12.8453 9.54083C12.8453 8.45389 13.0734 7.48772 13.5297 6.64232C13.9994 5.79692 14.63 5.13268 15.4218 4.6496C16.2269 4.15309 17.126 3.90484 18.119 3.90484C18.9241 3.90484 19.6353 4.05245 20.2526 4.34767C20.8833 4.62947 21.4134 5.01862 21.8428 5.51512C22.2856 5.99821 22.6211 6.5551 22.8492 7.18579C23.0907 7.80307 23.2115 8.44718 23.2115 9.11813C23.2115 9.26574 23.1981 9.43348 23.1713 9.62135C23.1578 9.79579 23.1377 9.96353 23.1109 10.1246H14.2141V8.51428H22.0239L21.1383 9.2389C21.259 8.54111 21.192 7.91713 20.937 7.36695C20.682 6.81677 20.3063 6.38065 19.8098 6.05859C19.3133 5.73654 18.7497 5.57551 18.119 5.57551C17.4883 5.57551 16.9113 5.73654 16.3879 6.05859C15.8646 6.38065 15.4553 6.84361 15.1601 7.44746C14.8783 8.0379 14.7642 8.7424 14.8179 9.56096C14.7642 10.3527 14.885 11.0505 15.1802 11.6543C15.4889 12.2448 15.9183 12.7077 16.4685 13.0432C17.0321 13.3653 17.6426 13.5263 18.3001 13.5263C19.0248 13.5263 19.6353 13.3585 20.1318 13.0231C20.6284 12.6876 21.0309 12.2582 21.3396 11.7348L22.9096 12.54C22.6949 13.0365 22.3594 13.4927 21.9032 13.9087C21.4603 14.3113 20.9303 14.6334 20.313 14.8749C19.7091 15.1164 19.0315 15.2372 18.28 15.2372ZM30.2214 19.4239C29.4566 19.4239 28.7453 19.3032 28.0878 19.0616C27.4437 18.8201 26.8868 18.4846 26.4171 18.0552C25.9609 17.6392 25.612 17.1494 25.3705 16.5858L27.1216 15.7807C27.3095 16.2906 27.6651 16.72 28.1885 17.0689C28.7252 17.4312 29.3962 17.6124 30.2013 17.6124C30.8186 17.6124 31.3755 17.4916 31.872 17.2501C32.3819 17.0219 32.7845 16.673 33.0797 16.2034C33.3749 15.7471 33.5225 15.1902 33.5225 14.5327V12.0972L33.8647 12.4595C33.489 13.1975 32.9455 13.7611 32.2343 14.1503C31.5365 14.5394 30.7649 14.734 29.9195 14.734C28.8997 14.734 27.9872 14.4992 27.182 14.0295C26.3769 13.5464 25.7462 12.8956 25.2899 12.077C24.8337 11.245 24.6056 10.3258 24.6056 9.31942C24.6056 8.29957 24.8337 7.38037 25.2899 6.56181C25.7462 5.74325 26.3702 5.09913 27.1619 4.62947C27.967 4.14638 28.8795 3.90484 29.8994 3.90484C30.7448 3.90484 31.5097 4.09942 32.194 4.48857C32.8918 4.8643 33.4487 5.38764 33.8647 6.05859L33.5829 6.56181V4.14638H35.4146V14.5327C35.4146 15.472 35.1932 16.3107 34.7504 17.0488C34.3075 17.7868 33.6903 18.3638 32.8985 18.7798C32.1202 19.2092 31.2279 19.4239 30.2214 19.4239ZM30.0805 12.9224C30.7247 12.9224 31.3017 12.7614 31.8116 12.4393C32.3349 12.1173 32.7509 11.6879 33.0596 11.1511C33.3682 10.6009 33.5225 9.99037 33.5225 9.31942C33.5225 8.66189 33.3682 8.05803 33.0596 7.50785C32.7509 6.95767 32.3349 6.52155 31.8116 6.19949C31.3017 5.87744 30.7247 5.71641 30.0805 5.71641C29.423 5.71641 28.8259 5.87744 28.2891 6.19949C27.7523 6.52155 27.3296 6.95767 27.021 7.50785C26.7258 8.04461 26.5782 8.64847 26.5782 9.31942C26.5782 9.99037 26.7258 10.6009 27.021 11.1511C27.3296 11.6879 27.7456 12.1173 28.269 12.4393C28.8057 12.7614 29.4096 12.9224 30.0805 12.9224ZM37.7129 14.9957V4.14638H39.5848V14.9957H37.7129ZM37.7129 2.41533V-9.95796e-05H39.5848V2.41533H37.7129ZM45.7704 15.2372C44.6835 15.2372 43.7374 14.9688 42.9323 14.4321C42.1272 13.8953 41.5568 13.1707 41.2214 12.2582L42.7109 11.5336C43.0195 12.1777 43.4422 12.6876 43.979 13.0633C44.5157 13.4391 45.1129 13.6269 45.7704 13.6269C46.3609 13.6269 46.8507 13.486 47.2398 13.2042C47.629 12.9224 47.8235 12.5534 47.8235 12.0972C47.8235 11.7751 47.7296 11.5201 47.5417 11.3323C47.3673 11.131 47.1526 10.9767 46.8976 10.8693C46.6427 10.7485 46.4078 10.6613 46.1931 10.6076L44.5627 10.1447C43.5831 9.86289 42.8652 9.46032 42.409 8.93698C41.9661 8.41363 41.7447 7.80307 41.7447 7.10528C41.7447 6.46116 41.9057 5.90427 42.2278 5.43461C42.5633 4.95152 43.0128 4.57579 43.5764 4.30741C44.1534 4.03903 44.7975 3.90484 45.5088 3.90484C46.4615 3.90484 47.3136 4.14638 48.0651 4.62947C48.83 5.11255 49.3734 5.79021 49.6955 6.66245L48.1657 7.36695C47.9242 6.80335 47.5619 6.36052 47.0788 6.03846C46.5957 5.70299 46.0522 5.53525 45.4484 5.53525C44.8982 5.53525 44.4621 5.67615 44.14 5.95795C43.818 6.22633 43.6569 6.56852 43.6569 6.98451C43.6569 7.29314 43.7374 7.54811 43.8985 7.74939C44.0595 7.93726 44.2541 8.08487 44.4822 8.19222C44.7103 8.28615 44.9317 8.36667 45.1464 8.43376L46.9178 8.9571C47.8034 9.21207 48.4878 9.60793 48.9709 10.1447C49.4674 10.6814 49.7156 11.3256 49.7156 12.077C49.7156 12.6809 49.5479 13.2244 49.2124 13.7074C48.8769 14.1905 48.414 14.5663 47.8235 14.8346C47.2331 15.103 46.5487 15.2372 45.7704 15.2372ZM55.9704 15.1164C54.9103 15.1164 54.0917 14.8145 53.5147 14.2107C52.9511 13.6068 52.6693 12.7547 52.6693 11.6543V5.93782H50.6967V4.14638H51.0993C51.5824 4.14638 51.9648 3.99877 52.2466 3.70355C52.5284 3.40833 52.6693 3.01918 52.6693 2.5361V1.65044H54.5413V4.14638H56.9768V5.93782H54.5413V11.5939C54.5413 11.9563 54.595 12.2716 54.7023 12.54C54.8231 12.8084 55.0177 13.0231 55.286 13.1841C55.5544 13.3317 55.91 13.4055 56.3528 13.4055C56.4468 13.4055 56.5608 13.3988 56.695 13.3854C56.8426 13.372 56.9768 13.3585 57.0976 13.3451V14.9957C56.9232 15.0359 56.7286 15.0628 56.5139 15.0762C56.2992 15.103 56.118 15.1164 55.9704 15.1164ZM63.6361 15.2372C62.5894 15.2372 61.6568 14.989 60.8382 14.4925C60.0197 13.9959 59.3755 13.3183 58.9059 12.4595C58.4362 11.5872 58.2014 10.6144 58.2014 9.54083C58.2014 8.45389 58.4295 7.48772 58.8857 6.64232C59.3554 5.79692 59.9861 5.13268 60.7778 4.6496C61.583 4.15309 62.482 3.90484 63.4751 3.90484C64.2802 3.90484 64.9914 4.05245 65.6087 4.34767C66.2394 4.62947 66.7694 5.01862 67.1988 5.51512C67.6417 5.99821 67.9771 6.5551 68.2053 7.18579C68.4468 7.80307 68.5676 8.44718 68.5676 9.11813C68.5676 9.26574 68.5542 9.43348 68.5273 9.62135C68.5139 9.79579 68.4938 9.96353 68.4669 10.1246H59.5701V8.51428H67.38L66.4943 9.2389C66.6151 8.54111 66.548 7.91713 66.2931 7.36695C66.0381 6.81677 65.6624 6.38065 65.1659 6.05859C64.6693 5.73654 64.1057 5.57551 63.4751 5.57551C62.8444 5.57551 62.2673 5.73654 61.744 6.05859C61.2207 6.38065 60.8114 6.84361 60.5162 7.44746C60.2344 8.0379 60.1203 8.7424 60.174 9.56096C60.1203 10.3527 60.2411 11.0505 60.5363 11.6543C60.8449 12.2448 61.2743 12.7077 61.8245 13.0432C62.3881 13.3653 62.9987 13.5263 63.6562 13.5263C64.3808 13.5263 64.9914 13.3585 65.4879 13.0231C65.9844 12.6876 66.387 12.2582 66.6956 11.7348L68.2656 12.54C68.0509 13.0365 67.7155 13.4927 67.2592 13.9087C66.8164 14.3113 66.2863 14.6334 65.6691 14.8749C65.0652 15.1164 64.3875 15.2372 63.6361 15.2372ZM70.4045 14.9957V4.14638H72.2362V6.13911L72.0349 5.85731C72.2898 5.24003 72.679 4.78379 73.2023 4.48857C73.7257 4.17993 74.3631 4.02561 75.1145 4.02561H75.7788V5.79692H74.8327C74.0679 5.79692 73.4506 6.03846 72.9809 6.52155C72.5113 6.99122 72.2764 7.66217 72.2764 8.5344V14.9957H70.4045Z" fill="#7354AC"/>
<path d="M0 18.5182H76.0002V19.3233H0V18.5182Z" fill="#7354AC"/>
</g>
</svg>
