<svg width="35" height="35" viewBox="0 0 35 35" fill="none" xmlns="http://www.w3.org/2000/svg">
<path d="M26.8192 26.8192C26.3851 27.2533 25.6814 27.2533 25.2473 26.8192L20.5303 22.1022C19.6361 21.208 18.213 21.171 17.0228 21.5982C16.293 21.8602 15.5164 21.9912 14.693 21.9912C12.6533 21.9912 10.9271 21.2846 9.51467 19.8713C8.10219 18.4581 7.39558 16.732 7.39483 14.693C7.39408 12.654 8.1007 10.9279 9.51467 9.51467C10.9286 8.10145 12.6548 7.39483 14.693 7.39483C16.7313 7.39483 18.4577 8.10145 19.8725 9.51467C21.2872 10.9279 21.9934 12.654 21.9912 14.693C21.9912 15.5164 21.8602 16.293 21.5982 17.0228C21.171 18.213 21.208 19.6361 22.1022 20.5303L26.8192 25.2473C27.2533 25.6814 27.2533 26.3851 26.8192 26.8192ZM14.693 19.7456C16.0965 19.7456 17.2897 19.2546 18.2725 18.2725C19.2553 17.2904 19.7463 16.0973 19.7456 14.693C19.7448 13.2888 19.2538 12.096 18.2725 11.1147C17.2912 10.1333 16.098 9.64192 14.693 9.64042C13.288 9.63893 12.0952 10.1303 11.1147 11.1147C10.1341 12.099 9.64267 13.2918 9.64043 14.693C9.63818 16.0943 10.1296 17.2874 11.1147 18.2725C12.0997 19.2576 13.2925 19.7486 14.693 19.7456Z" fill="#5D7285"/>
</svg>
