<svg width="44" height="44" viewBox="0 0 44 44" fill="none" xmlns="http://www.w3.org/2000/svg">
<path d="M22.8767 9.77789C23.801 9.77789 24.6379 10.2912 25.1001 11.049C25.3249 11.4157 25.4748 11.8679 25.4373 12.3445C25.4123 12.7112 25.5247 13.0779 25.7246 13.4201C26.3616 14.459 27.773 14.8501 28.8722 14.2634C30.1088 13.5545 31.6701 13.9823 32.3821 15.1923L33.2189 16.6345C33.9434 17.8445 33.5437 19.3968 32.2946 20.0934C31.2329 20.7168 30.8582 22.0979 31.4952 23.149C31.6951 23.479 31.9199 23.7601 32.2696 23.9312C32.7068 24.1634 33.0441 24.5301 33.2814 24.8968C33.7435 25.6545 33.7061 26.5834 33.2564 27.4023L32.3821 28.869C31.9199 29.6512 31.0581 30.1401 30.1712 30.1401C29.7341 30.1401 29.2469 30.0179 28.8472 29.7734C28.5225 29.5656 28.1478 29.4923 27.7481 29.4923C26.5115 29.4923 25.4748 30.5067 25.4373 31.7167C25.4373 33.1223 24.2882 34.2223 22.8518 34.2223H21.153C19.7041 34.2223 18.555 33.1223 18.555 31.7167C18.53 30.5067 17.4933 29.4923 16.2567 29.4923C15.8445 29.4923 15.4698 29.5656 15.1576 29.7734C14.7579 30.0179 14.2582 30.1401 13.8336 30.1401C12.9342 30.1401 12.0724 29.6512 11.6102 28.869L10.7484 27.4023C10.2862 26.6079 10.2613 25.6545 10.7234 24.8968C10.9233 24.5301 11.298 24.1634 11.7227 23.9312C12.0724 23.7601 12.2972 23.479 12.5096 23.149C13.1341 22.0979 12.7594 20.7168 11.6977 20.0934C10.4611 19.3968 10.0614 17.8445 10.7734 16.6345L11.6102 15.1923C12.3347 13.9823 13.8835 13.5545 15.1326 14.2634C16.2193 14.8501 17.6307 14.459 18.2677 13.4201C18.4676 13.0779 18.58 12.7112 18.555 12.3445C18.53 11.8679 18.6674 11.4157 18.9047 11.049C19.3669 10.2912 20.2038 9.80233 21.1156 9.77789H22.8767ZM22.0149 18.5534C20.0539 18.5534 18.4676 20.0934 18.4676 22.0123C18.4676 23.9312 20.0539 25.459 22.0149 25.459C23.9759 25.459 25.5247 23.9312 25.5247 22.0123C25.5247 20.0934 23.9759 18.5534 22.0149 18.5534Z" fill="#5D7285"/>
</svg>
