<svg width="44" height="44" viewBox="0 0 44 44" fill="none" xmlns="http://www.w3.org/2000/svg">
<path d="M17.0129 23.7964C18.7363 23.7964 20.1174 25.1909 20.1174 26.9265V31.093C20.1174 32.8164 18.7363 34.2219 17.0129 34.2219H12.8818C11.1707 34.2219 9.7774 32.8164 9.7774 31.093V26.9265C9.7774 25.1909 11.1707 23.7964 12.8818 23.7964H17.0129ZM31.1175 23.7964C32.8286 23.7964 34.2219 25.1909 34.2219 26.9265V31.093C34.2219 32.8164 32.8286 34.2219 31.1175 34.2219H26.9864C25.263 34.2219 23.8819 32.8164 23.8819 31.093V26.9265C23.8819 25.1909 25.263 23.7964 26.9864 23.7964H31.1175ZM17.0129 9.77789C18.7363 9.77789 20.1174 11.1834 20.1174 12.908V17.0745C20.1174 18.8101 18.7363 20.2034 17.0129 20.2034H12.8818C11.1707 20.2034 9.7774 18.8101 9.7774 17.0745V12.908C9.7774 11.1834 11.1707 9.77789 12.8818 9.77789H17.0129ZM31.1175 9.77789C32.8286 9.77789 34.2219 11.1834 34.2219 12.908V17.0745C34.2219 18.8101 32.8286 20.2034 31.1175 20.2034H26.9864C25.263 20.2034 23.8819 18.8101 23.8819 17.0745V12.908C23.8819 11.1834 25.263 9.77789 26.9864 9.77789H31.1175Z" fill="#5D7285"/>
</svg>
