<svg width="40" height="43" viewBox="0 0 40 43" fill="none" xmlns="http://www.w3.org/2000/svg">
<path d="M12.9917 24.205V21.4016H27.0083V24.205H12.9917ZM12.9917 29.8116V27.0083H22.8033V29.8116H12.9917ZM10.1884 35.4182C9.41752 35.4182 8.75781 35.1439 8.2093 34.5954C7.66078 34.0469 7.38606 33.3867 7.38512 32.6149V12.9917C7.38512 12.2208 7.65985 11.5611 8.2093 11.0126C8.75874 10.4641 9.41845 10.1894 10.1884 10.1884H11.5901V7.38512H14.3934V10.1884H25.6066V7.38512H28.4099V10.1884H29.8116C30.5825 10.1884 31.2427 10.4632 31.7921 11.0126C32.3416 11.562 32.6158 12.2218 32.6149 12.9917V32.6149C32.6149 33.3858 32.3406 34.046 31.7921 34.5954C31.2436 35.1449 30.5834 35.4191 29.8116 35.4182H10.1884ZM10.1884 32.6149H29.8116V18.5983H10.1884V32.6149Z" fill="#1A86DC"/>
</svg>
