<svg width="44" height="44" viewBox="0 0 44 44" fill="none" xmlns="http://www.w3.org/2000/svg">
<path d="M18.4982 32.7228V28.9856C18.4982 28.0316 19.2772 27.2582 20.2382 27.2582H23.7511C24.2126 27.2582 24.6552 27.4402 24.9815 27.7641C25.3078 28.0881 25.4911 28.5275 25.4911 28.9856V32.7228C25.4882 33.1194 25.6449 33.5008 25.9264 33.7823C26.2078 34.0637 26.5908 34.222 26.9904 34.222H29.387C30.5063 34.2249 31.5808 33.7855 32.3733 33.0008C33.1658 32.2161 33.6112 31.1506 33.6112 30.0394V19.3927C33.6112 18.4951 33.2104 17.6437 32.5169 17.0678L24.3639 10.6037C22.9457 9.47033 20.9137 9.50692 19.5378 10.6906L11.5709 17.0678C10.8446 17.6267 10.4105 18.4806 10.389 19.3927V30.0285C10.389 32.3445 12.2803 34.222 14.6132 34.222H16.9552C17.785 34.222 18.4594 33.5574 18.4654 32.7337L18.4982 32.7228Z" fill="#5D7285"/>
</svg>
