<svg width="44" height="44" viewBox="0 0 44 44" fill="none" xmlns="http://www.w3.org/2000/svg">
<path d="M21.3802 9.77779C24.4144 9.77779 26.889 12.21 26.889 15.2045V21.0589H19.4278C18.8931 21.0589 18.4703 21.4745 18.4703 22C18.4703 22.5134 18.8931 22.9411 19.4278 22.9411H26.889V28.7834C26.889 31.7778 24.4144 34.2223 21.3553 34.2223H15.2992C12.2526 34.2223 9.77791 31.79 9.77791 28.7956V15.2167C9.77791 12.21 12.265 9.77779 15.3117 9.77779H21.3802ZM29.9937 17.7836C30.3604 17.4047 30.9593 17.4047 31.326 17.7714L34.8949 21.328C35.0782 21.5114 35.176 21.7436 35.176 22.0003C35.176 22.2447 35.0782 22.4892 34.8949 22.6603L31.326 26.2169C31.1426 26.4003 30.8982 26.4981 30.666 26.4981C30.4215 26.4981 30.1771 26.4003 29.9937 26.2169C29.6271 25.8503 29.6271 25.2514 29.9937 24.8847L31.9493 22.9414H26.8893V21.0592H31.9493L29.9937 19.1158C29.6271 18.7492 29.6271 18.1503 29.9937 17.7836Z" fill="white"/>
</svg>
