<svg width="36" height="39" viewBox="0 0 36 39" fill="none" xmlns="http://www.w3.org/2000/svg">
<rect x="9.43827" y="15.8682" width="17.8203" height="15.2746" fill="#D9D9D9"/>
<path d="M12.107 21.5358V19.1786H23.893V21.5358H12.107ZM12.107 26.2501V23.893H20.3572V26.2501H12.107ZM9.74986 30.9645C9.10163 30.9645 8.54691 30.7339 8.08568 30.2727C7.62446 29.8114 7.39346 29.2563 7.39267 28.6073V12.107C7.39267 11.4588 7.62368 10.9041 8.08568 10.4429C8.54769 9.98164 9.10242 9.75064 9.74986 9.74986H10.9284V7.39267H13.2856V9.74986H22.7144V7.39267H25.0715V9.74986H26.2501C26.8984 9.74986 27.4535 9.98086 27.9155 10.4429C28.3775 10.9049 28.6081 11.4596 28.6073 12.107V28.6073C28.6073 29.2555 28.3767 29.8107 27.9155 30.2727C27.4543 30.7347 26.8992 30.9653 26.2501 30.9645H9.74986ZM9.74986 28.6073H26.2501V16.8214H9.74986V28.6073Z" fill="#5D7285"/>
</svg>
