<svg width="44" height="44" viewBox="0 0 44 44" fill="none" xmlns="http://www.w3.org/2000/svg">
<path d="M22.0245 9.77764C28.9667 9.77764 34.2223 15.4695 34.2223 21.9815C34.2223 29.5339 28.0623 34.222 22.0001 34.222C19.9956 34.222 17.7712 33.6835 15.9868 32.6308C15.3634 32.2513 14.8379 31.9698 14.1657 32.1901L11.6968 32.9245C11.0734 33.1204 10.5112 32.6308 10.6946 31.9698L11.5134 29.2279C11.6479 28.8484 11.6234 28.4445 11.4279 28.1262C10.3768 26.1922 9.77789 24.0746 9.77789 22.0182C9.77789 15.5797 14.9234 9.77764 22.0245 9.77764ZM27.6101 20.4637C26.7423 20.4637 26.0456 21.1614 26.0456 22.0304C26.0456 22.8873 26.7423 23.5972 27.6101 23.5972C28.4779 23.5972 29.1745 22.8873 29.1745 22.0304C29.1745 21.1614 28.4779 20.4637 27.6101 20.4637ZM21.9756 20.4637C21.1201 20.4514 20.4112 21.1614 20.4112 22.0182C20.4112 22.8873 21.1079 23.585 21.9756 23.5972C22.8434 23.5972 23.5401 22.8873 23.5401 22.0304C23.5401 21.1614 22.8434 20.4637 21.9756 20.4637ZM16.3412 20.4637C15.4734 20.4637 14.7768 21.1614 14.7768 22.0304C14.7768 22.8873 15.4857 23.5972 16.3412 23.5972C17.209 23.585 17.9057 22.8873 17.9057 22.0304C17.9057 21.1614 17.209 20.4637 16.3412 20.4637Z" fill="#5D7285"/>
</svg>
