<svg width="34" height="25" viewBox="0 0 34 25" fill="none" xmlns="http://www.w3.org/2000/svg">
<path d="M0 1.77083C0 0.792827 0.792827 0 1.77083 0H32.2291C33.2071 0 33.9999 0.792827 33.9999 1.77083C33.9999 2.74883 33.2071 3.54166 32.2291 3.54166H1.77083C0.792828 3.54166 0 2.74883 0 1.77083ZM0 8.85414C0 7.87614 0.792827 7.08331 1.77083 7.08331H32.2291C33.2071 7.08331 33.9999 7.87614 33.9999 8.85414C33.9999 9.83214 33.2071 10.625 32.2291 10.625H1.77083C0.792828 10.625 0 9.83214 0 8.85414ZM0 15.9375C0 14.9595 0.792827 14.1666 1.77083 14.1666H32.2291C33.2071 14.1666 33.9999 14.9595 33.9999 15.9375C33.9999 16.9155 33.2071 17.7083 32.2291 17.7083H1.77083C0.792828 17.7083 0 16.9155 0 15.9375ZM0 23.0208C0 22.0428 0.792827 21.2499 1.77083 21.2499H32.2291C33.2071 21.2499 33.9999 22.0428 33.9999 23.0208C33.9999 23.9988 33.2071 24.7916 32.2291 24.7916H1.77083C0.792828 24.7916 0 23.9988 0 23.0208Z" fill="#485C6F"/>
</svg>
