<svg width="3396" height="3342" viewBox="0 0 3396 3342" fill="none" xmlns="http://www.w3.org/2000/svg">
<g filter="url(#filter0_f_2001_499)">
<ellipse cx="1386.02" cy="2226.45" rx="598.024" ry="560.522" fill="#E44EFD"/>
</g>
<g filter="url(#filter1_f_2001_499)">
<path d="M1543.18 820.459C1889.81 571.957 1983.29 928.689 2001.25 1129.96C1948.28 1349.16 1793.39 1591.99 1789.25 1750.42C1780.11 2100.84 1370.76 1724.32 1211.95 1928.83C1149.65 2055.93 886.968 1925.55 642.157 1913.96C397.345 1902.37 293.163 1673.32 319.622 1559.38C380.397 1490.78 555.435 1393.06 644.493 1372.7C790.567 1339.31 760.126 1341.38 824.094 1317.85C888.769 1319.54 837.721 1043.99 756.599 887.73C675.477 731.474 758.874 507.591 810.713 415.181C832.192 345.555 907.115 243.396 1034.97 391.767C1059.95 638.207 1196.55 1068.96 1543.18 820.459Z" fill="#A993EE"/>
<path d="M1543.18 820.459C1889.81 571.957 1983.29 928.689 2001.25 1129.96C1948.28 1349.16 1793.39 1591.99 1789.25 1750.42C1780.11 2100.84 1370.76 1724.32 1211.95 1928.83C1149.65 2055.93 886.968 1925.55 642.157 1913.96C397.345 1902.37 293.163 1673.32 319.622 1559.38C380.397 1490.78 555.435 1393.06 644.493 1372.7C790.567 1339.31 760.126 1341.38 824.094 1317.85C888.769 1319.54 837.721 1043.99 756.599 887.73C675.477 731.474 758.874 507.591 810.713 415.181C832.192 345.555 907.115 243.396 1034.97 391.767C1059.95 638.207 1196.55 1068.96 1543.18 820.459Z" stroke="black"/>
</g>
<g filter="url(#filter2_f_2001_499)">
<path d="M1884.59 1205.59C1722.34 964.777 2017.09 868.415 2184.74 850.336C2263.34 897.554 2445.4 1033.91 2544.86 1201.56C2669.19 1411.13 2915.26 1135.08 3042.61 1443.35C3169.95 1751.62 2940.32 1829.85 2870.13 1776.28C2799.93 1722.71 2721.91 1772.17 2715.36 2060.52C2710.12 2291.19 2484.59 2203.25 2372.49 2130.44C2304.23 2056.78 2104.24 1921.17 1850.29 1968.02C1596.34 2014.86 1633.93 1839.99 1684.47 1746.7C1707.17 1700.04 1736 1587.77 1669.62 1511.97C1603.24 1436.16 1703.3 1417.49 1761.63 1417.63C1872.91 1415.5 2053.29 1370.12 1884.59 1205.59Z" fill="#A24EFE"/>
<path d="M1884.59 1205.59C1722.34 964.777 2017.09 868.415 2184.74 850.336C2263.34 897.554 2445.4 1033.91 2544.86 1201.56C2669.19 1411.13 2915.26 1135.08 3042.61 1443.35C3169.95 1751.62 2940.32 1829.85 2870.13 1776.28C2799.93 1722.71 2721.91 1772.17 2715.36 2060.52C2710.12 2291.19 2484.59 2203.25 2372.49 2130.44C2304.23 2056.78 2104.24 1921.17 1850.29 1968.02C1596.34 2014.86 1633.93 1839.99 1684.47 1746.7C1707.17 1700.04 1736 1587.77 1669.62 1511.97C1603.24 1436.16 1703.3 1417.49 1761.63 1417.63C1872.91 1415.5 2053.29 1370.12 1884.59 1205.59Z" stroke="black"/>
</g>
<g filter="url(#filter3_f_2001_499)">
<path d="M1908.93 2018.8C1549.24 2480.76 1970.85 2231.06 1745.92 2567.03C1692.2 2569.57 1629.42 2729.66 1738.55 2693.83C2150.16 2558.67 1791.5 2737 1833.64 2730.02C1785.23 2806.6 1705.07 3011.61 1859.87 3025.28C2053.38 3042.37 2251.19 2806.49 2380.2 2766.14C2509.21 2725.79 2542.92 2644.69 2613.86 2644.53C2670.61 2644.4 2797.79 2554.26 2854.28 2509.21C2911.83 2466.26 3025.77 2361.84 3021.15 2287.76L3021.13 2287.51C3015.37 2194.99 3009.53 2101.4 2844.97 2135.28C2713.2 2162.4 2761.24 1984.95 2749.25 1948.2C2701.25 1685.16 2268.61 1556.85 1908.93 2018.8Z" fill="#6A8EFC"/>
<path d="M1908.93 2018.8C1549.24 2480.76 1970.85 2231.06 1745.92 2567.03C1692.2 2569.57 1629.42 2729.66 1738.55 2693.83C2150.16 2558.67 1791.5 2737 1833.64 2730.02C1785.23 2806.6 1705.07 3011.61 1859.87 3025.28C2053.38 3042.37 2251.19 2806.49 2380.2 2766.14C2509.21 2725.79 2542.92 2644.69 2613.86 2644.53C2670.61 2644.4 2797.79 2554.26 2854.28 2509.21C2911.83 2466.26 3025.77 2361.84 3021.15 2287.76L3021.13 2287.51C3015.37 2194.99 3009.53 2101.4 2844.97 2135.28C2713.2 2162.4 2761.24 1984.95 2749.25 1948.2C2701.25 1685.16 2268.61 1556.85 1908.93 2018.8Z" stroke="#4D7AFD"/>
</g>
<g filter="url(#filter4_f_2001_499)">
<path d="M1971.67 1814.86C1993.06 1857.14 1900.4 1964.48 1991.68 1962.82C2126.98 2007.89 2125.58 2126.4 2007.03 2145.68C1930.87 2126.37 1740.21 2050 1810.91 2111.85C1881.6 2173.7 1820.73 2274.07 1779.18 2285.6C1676.13 2289.39 1625.97 2220.43 1645.92 2141.74C1670.86 2043.38 1515.73 2114.98 1428.81 2039.24C1359.27 1978.64 1367.97 1853.37 1422.88 1838.48C1477.8 1823.59 1586.49 1768.59 1581.97 1667.73C1576.31 1541.66 1585.05 1566.04 1611.18 1531.68C1632.08 1504.19 1693.45 1518.86 1721.52 1529.63C1745.25 1544.92 1806.03 1572.6 1859.25 1560.94C1912.47 1549.28 2018.86 1624.81 2021.96 1668.77C2017 1703.36 2048.32 1743.54 1988.36 1749.14C1928.39 1754.73 1945.93 1776.39 1971.67 1814.86Z" fill="#5CCCB0"/>
<path d="M1971.67 1814.86C1993.06 1857.14 1900.4 1964.48 1991.68 1962.82C2126.98 2007.89 2125.58 2126.4 2007.03 2145.68C1930.87 2126.37 1740.21 2050 1810.91 2111.85C1881.6 2173.7 1820.73 2274.07 1779.18 2285.6C1676.13 2289.39 1625.97 2220.43 1645.92 2141.74C1670.86 2043.38 1515.73 2114.98 1428.81 2039.24C1359.27 1978.64 1367.97 1853.37 1422.88 1838.48C1477.8 1823.59 1586.49 1768.59 1581.97 1667.73C1576.31 1541.66 1585.05 1566.04 1611.18 1531.68C1632.08 1504.19 1693.45 1518.86 1721.52 1529.63C1745.25 1544.92 1806.03 1572.6 1859.25 1560.94C1912.47 1549.28 2018.86 1624.81 2021.96 1668.77C2017 1703.36 2048.32 1743.54 1988.36 1749.14C1928.39 1754.73 1945.93 1776.39 1971.67 1814.86Z" stroke="black"/>
</g>
<defs>
<filter id="filter0_f_2001_499" x="472.885" y="1350.81" width="1826.27" height="1751.27" filterUnits="userSpaceOnUse" color-interpolation-filters="sRGB">
<feFlood flood-opacity="0" result="BackgroundImageFix"/>
<feBlend mode="normal" in="SourceGraphic" in2="BackgroundImageFix" result="shape"/>
<feGaussianBlur stdDeviation="157.55" result="effect1_foregroundBlur_2001_499"/>
</filter>
<filter id="filter1_f_2001_499" x="9.15564e-05" y="9.15564e-05" width="2316.86" height="2299.7" filterUnits="userSpaceOnUse" color-interpolation-filters="sRGB">
<feFlood flood-opacity="0" result="BackgroundImageFix"/>
<feBlend mode="normal" in="SourceGraphic" in2="BackgroundImageFix" result="shape"/>
<feGaussianBlur stdDeviation="157.55" result="effect1_foregroundBlur_2001_499"/>
</filter>
<filter id="filter2_f_2001_499" x="1332.08" y="534.708" width="2063.92" height="1990.29" filterUnits="userSpaceOnUse" color-interpolation-filters="sRGB">
<feFlood flood-opacity="0" result="BackgroundImageFix"/>
<feBlend mode="normal" in="SourceGraphic" in2="BackgroundImageFix" result="shape"/>
<feGaussianBlur stdDeviation="157.55" result="effect1_foregroundBlur_2001_499"/>
</filter>
<filter id="filter3_f_2001_499" x="1362.91" y="1395.59" width="1973.98" height="1946.19" filterUnits="userSpaceOnUse" color-interpolation-filters="sRGB">
<feFlood flood-opacity="0" result="BackgroundImageFix"/>
<feBlend mode="normal" in="SourceGraphic" in2="BackgroundImageFix" result="shape"/>
<feGaussianBlur stdDeviation="157.55" result="effect1_foregroundBlur_2001_499"/>
</filter>
<filter id="filter4_f_2001_499" x="1063.56" y="1200.32" width="1346.67" height="1401.04" filterUnits="userSpaceOnUse" color-interpolation-filters="sRGB">
<feFlood flood-opacity="0" result="BackgroundImageFix"/>
<feBlend mode="normal" in="SourceGraphic" in2="BackgroundImageFix" result="shape"/>
<feGaussianBlur stdDeviation="157.55" result="effect1_foregroundBlur_2001_499"/>
</filter>
</defs>
</svg>
